<svg xmlns="http://www.w3.org/2000/svg">
<symbol id='search' viewBox="0 0 18 17" fill="none" xmlns="http://www.w3.org/2000/svg">
<path fill-rule="evenodd" clip-rule="evenodd" d="M13.7 7.5C13.7 10.9242 10.9242 13.7 7.5 13.7C4.07583 13.7 1.3 10.9242 1.3 7.5C1.3 4.07583 4.07583 1.3 7.5 1.3C10.9242 1.3 13.7 4.07583 13.7 7.5ZM12.8033 12.8033C11.4461 14.1605 9.57107 15 7.5 15C3.35786 15 0 11.6421 0 7.5C0 3.35786 3.35786 0 7.5 0C11.6421 0 15 3.35786 15 7.5C15 9.10159 14.498 10.5859 13.6427 11.8042L17.9192 16.0808L17 17L12.8033 12.8033Z" fill="#AEB4C1"/>
</symbol>

<symbol id="arrow-down" viewBox="0 0 14 9" fill="none" xmlns="http://www.w3.org/2000/svg">
  <path d="M1.55 2.18 L7 7.64" stroke="currentColor" stroke-width="0.91" stroke-linecap="round"/>
  <path d="M12.45 2.18 L7 7.64" stroke="currentColor" stroke-width="0.91" stroke-linecap="round"/>
</symbol>

<symbol id='arrow-check' viewBox="0 0 14 9" fill="none" xmlns="http://www.w3.org/2000/svg">
<path d="M1.28564 3.53571L5.01028 7.54686C5.25822 7.81387 5.67828 7.82165 5.93593 7.564L12.2142 1.28571" stroke="currentColor" stroke-width="1.02857" stroke-linecap="round"/>
</symbol>

<symbol id='delete' viewBox="0 0 20 20" fill="none" xmlns="http://www.w3.org/2000/svg">
<circle cx="10" cy="10" r="9.54545" stroke="#DB2525" stroke-width="0.909091"/>
<path d="M6.65283 14.1528L14.1528 6.65283" stroke="#DB2525" stroke-width="0.981955" stroke-linecap="round"/>
<path d="M13.8472 14.1528L6.34717 6.65283" stroke="#DB2525" stroke-width="0.981955" stroke-linecap="round"/>
</symbol>
</svg>