<svg width="18" height="17" viewBox="0 0 18 17" fill="none" xmlns="http://www.w3.org/2000/svg">
<path fill-rule="evenodd" clip-rule="evenodd" d="M13.7 7.5C13.7 10.9242 10.9242 13.7 7.5 13.7C4.07583 13.7 1.3 10.9242 1.3 7.5C1.3 4.07583 4.07583 1.3 7.5 1.3C10.9242 1.3 13.7 4.07583 13.7 7.5ZM12.8033 12.8033C11.4461 14.1605 9.57107 15 7.5 15C3.35786 15 0 11.6421 0 7.5C0 3.35786 3.35786 0 7.5 0C11.6421 0 15 3.35786 15 7.5C15 9.10159 14.498 10.5859 13.6427 11.8042L17.9192 16.0808L17 17L12.8033 12.8033Z" fill="#AEB4C1"/>
</svg>
