<svg xmlns="http://www.w3.org/2000/svg">
    <symbol id='arrow-left' viewBox="0 0 44 38" fill="none" xmlns="http://www.w3.org/2000/svg">
<path d="M0.465479 19.192H43.9742M19.2177 0.100098C19.2177 0.100098 17.7816 7.14934 12.4783 12.4526C7.17503 17.7559 0.125793 19.192 0.125793 19.192C0.125793 19.192 6.81057 20.927 12.4265 25.8358C18.0424 30.7446 20.0938 37.4077 20.0938 37.4077" stroke="#AD2D11"/>
</symbol>

<symbol id='arrow-right' viewBox="0 0 44 38" fill="none" xmlns="http://www.w3.org/2000/svg">
<path d="M43.5087 18.3632H0M24.7565 37.4551C24.7565 37.4551 26.1925 30.4058 31.4958 25.1025C36.7991 19.7992 43.8484 18.3632 43.8484 18.3632C43.8484 18.3632 37.1636 16.6282 31.5477 11.7193C25.9318 6.81053 23.8804 0.147461 23.8804 0.147461" stroke="#AD2D11"/>
</symbol>

<symbol id='icon' viewBox="0 0 49 56" fill="none" xmlns="http://www.w3.org/2000/svg">
<path d="M5.7711e-07 31.8622V52.1688C-1.15826e-05 52.5923 -2.20723e-05 52.9578 0.0213511 53.2603C0.0438551 53.5787 0.0933589 53.8972 0.228363 54.2119C0.532845 54.9217 1.11687 55.4855 1.85195 55.7795C2.17788 55.9099 2.50779 55.9577 2.83762 55.9794C3.15085 56 3.52931 56 3.96792 56H4.03199C4.4706 56 4.84915 56 5.16238 55.9794C5.49221 55.9577 5.82212 55.9099 6.14805 55.7795C6.88314 55.4855 7.46716 54.9217 7.77164 54.2119C7.90664 53.8972 7.95615 53.5787 7.97865 53.2603C8.00002 52.9578 8.00002 52.5924 8 52.1688L8 31.8622H6V52.138C6 52.601 5.99946 52.9 5.98329 53.1288C5.96773 53.3489 5.94112 53.4328 5.92388 53.473C5.82239 53.7095 5.62771 53.8975 5.38268 53.9955C5.34107 54.0121 5.25424 54.0378 5.02624 54.0528C4.78926 54.0685 4.47963 54.069 4 54.069C3.52038 54.069 3.21074 54.0685 2.97376 54.0528C2.74576 54.0378 2.65893 54.0121 2.61732 53.9955C2.37229 53.8975 2.17762 53.7095 2.07612 53.473C2.05888 53.4328 2.03227 53.3489 2.01671 53.1288C2.00054 52.9 2 52.601 2 52.138V31.8622H5.7711e-07Z" fill="#AD2D11"/>
<path d="M1.13861 0.000244141C0.509773 0.000244141 0 0.49244 0 1.09959L5.7711e-07 31.8622H2L2 1.95868C8.70151 2.38655 14 7.77041 14 14.3491V29.9312H7.6C7.03995 29.9312 6.75992 29.9312 6.54601 30.0364C6.35785 30.129 6.20487 30.2767 6.10899 30.4583C6 30.6649 6 30.9352 6 31.476L6 31.8622H14.3922C15.2801 31.8622 16 31.1671 16 30.3098V14.3491C16 6.42445 9.34633 0.000244141 1.13861 0.000244141Z" fill="#AD2D11"/>
<path d="M36 24.7726C36 24.2126 36 23.9325 35.891 23.7186C35.7952 23.5305 35.6422 23.3775 35.454 23.2816C35.2401 23.1726 34.9601 23.1726 34.4 23.1726H34V52.1689C34 52.5924 34 52.9579 34.0214 53.2603C34.0439 53.5788 34.0934 53.8973 34.2284 54.212C34.5329 54.9217 35.1169 55.4856 35.852 55.7796C36.1779 55.9099 36.5078 55.9577 36.8376 55.9795C37.1509 56.0001 37.5293 56.0001 37.9679 56.0001H38.032C38.4706 56.0001 38.8492 56.0001 39.1624 55.9795C39.4922 55.9577 39.8221 55.9099 40.1481 55.7796C40.8832 55.4856 41.4672 54.9217 41.7717 54.212C41.9067 53.8973 41.9562 53.5788 41.9787 53.2603C42 52.9579 42 52.5924 42 52.1689L42 23.1726H41.6C41.04 23.1726 40.7599 23.1726 40.546 23.2816C40.3579 23.3775 40.2049 23.5305 40.109 23.7186C40 23.9325 40 24.2126 40 24.7726V52.138C40 52.6011 39.9995 52.9001 39.9833 53.1289C39.9678 53.349 39.9411 53.4328 39.9239 53.473C39.8224 53.7096 39.6277 53.8975 39.3827 53.9955C39.3411 54.0122 39.2543 54.0379 39.0263 54.0529C38.7893 54.0685 38.4796 54.069 38 54.069C37.5204 54.069 37.2108 54.0685 36.9738 54.0529C36.7458 54.0379 36.6589 54.0122 36.6173 53.9955C36.3723 53.8975 36.1776 53.7096 36.0761 53.473C36.0589 53.4328 36.0323 53.349 36.0167 53.1289C36.0006 52.9001 36 52.6011 36 52.138V24.7726Z" fill="#AD2D11"/>
<path d="M46 1.93124C46.1286 1.93124 46.1947 1.93145 46.2416 1.9333C46.2779 1.94977 46.3227 1.97182 46.4035 2.01162L46.454 2.03647C46.6422 2.12904 46.7951 2.27674 46.891 2.45842C46.9162 2.50616 46.9539 2.6034 46.9761 2.8657C46.9992 3.13926 47 3.4987 47 4.05537V14.4829C47 16.3237 46.9952 17.1031 46.8655 17.7325C46.3132 20.4135 44.1425 22.5094 41.3656 23.0427C39.4218 23.416 40.6945 23.8986 41 25.0393C41.2705 25.0152 41.5187 24.9821 41.7558 24.9366C45.326 24.2509 48.1169 21.5563 48.8271 18.1092C49.0002 17.2688 49.0001 16.2841 49 14.6184L49 4.01813C49 3.50917 49 3.0701 48.9694 2.70845C48.9371 2.32674 48.8658 1.94708 48.673 1.58175C48.3854 1.03673 47.9265 0.593618 47.362 0.315918L47.3059 0.288062C47.1519 0.211244 46.944 0.107573 46.7194 0.0543528C46.4854 -0.00111498 46.2445 -0.000431608 46.0535 0.000110618L46 0.000213179C44.3432 0.000213179 43 1.29704 43 2.89675V11.5864C43 12.1196 42.5523 12.5519 42 12.5519C41.4477 12.5519 41 12.1196 41 11.5864V2.89675C41 1.29704 39.6569 0.000213294 38 0.000213179C36.3432 0.000213294 35 1.29704 35 2.89675V11.5864C35 12.1196 34.5523 12.5519 34 12.5519C33.4477 12.5519 33 12.1196 33 11.5864V2.89675C33 1.29704 31.6569 0.000213179 30 0.000213179C28.8767 0.000213179 27.8558 0.579715 27.327 1.58175C27.1342 1.94708 27.0629 2.32674 27.0306 2.70845C27 3.0701 27 3.50918 27 4.01815L27 14.6184C26.9999 16.2841 26.9998 17.2688 27.1729 18.1092C27.8831 21.5563 30.674 24.2509 34.2442 24.9366C34.4813 24.9821 34.7295 25.0152 35 25.0393C35.3055 23.8986 36.5928 23.4188 34.6344 23.0427C31.8575 22.5094 29.6869 20.4135 29.1345 17.7325C29.0049 17.1031 29 16.3237 29 14.4829V4.05537C29 3.4987 29.0008 3.13926 29.0239 2.8657C29.0461 2.6034 29.0838 2.50616 29.109 2.45842C29.2896 2.11627 29.6137 1.93124 30 1.93124C30.5523 1.93124 31 2.36351 31 2.89675V11.5864C31 13.1861 32.3432 14.4829 34 14.4829C35.6569 14.4829 37 13.1861 37 11.5864V2.89675C37 2.36351 37.4477 1.93124 38 1.93124C38.5523 1.93124 39 2.36351 39 2.89675V11.5864C39 13.1861 40.3432 14.4829 42 14.4829C43.6569 14.4829 45 13.1861 45 11.5864V2.89675C45 2.36351 45.4477 1.93124 46 1.93124Z" fill="#AD2D11"/>
</symbol>

<symbol id='museum' viewBox="0 0 59 57" fill="none" xmlns="http://www.w3.org/2000/svg">
<path d="M27.0099 1.62925L27.5152 2.49218V2.49218L27.0099 1.62925ZM28.2063 1.04474L27.996 0.0671037L28.2063 1.04474ZM30.244 1.62925L29.7387 2.49217L30.244 1.62925ZM29.0476 1.04474L29.2579 0.0671037L29.0476 1.04474ZM1.58848 19.4238L0.882681 20.1323L1.58848 19.4238ZM5.80691 14.0456L5.30159 13.1827L5.80691 14.0456ZM1.06601 17.4977L0.0989755 17.2431L1.06601 17.4977ZM55.6654 19.4238L56.3712 20.1323L55.6654 19.4238ZM51.447 14.0457L51.9523 13.1827V13.1827L51.447 14.0457ZM56.1879 17.4977L57.1549 17.2431L56.1879 17.4977ZM2.71895 54.8029L3.17294 53.9119L2.71895 54.8029ZM1.84492 53.9289L2.73593 53.4749L1.84492 53.9289ZM57.4089 53.9289L56.5179 53.4749L57.4089 53.9289ZM56.5349 54.8029L56.0809 53.9119L56.5349 54.8029ZM56.5349 48.225L56.0809 49.116L56.5349 48.225ZM57.4089 49.099L56.5179 49.553L57.4089 49.099ZM2.71895 48.225L3.17294 49.116L2.71895 48.225ZM1.84492 49.099L2.73593 49.553L1.84492 49.099ZM11.6269 26.007C11.6269 25.4547 11.1792 25.007 10.6269 25.007C10.0746 25.007 9.62693 25.4547 9.62693 26.007H11.6269ZM9.62693 42.007C9.62693 42.5593 10.0746 43.007 10.6269 43.007C11.1792 43.007 11.6269 42.5593 11.6269 42.007H9.62693ZM35.6269 26.007C35.6269 25.4547 35.1792 25.007 34.6269 25.007C34.0746 25.007 33.6269 25.4547 33.6269 26.007H35.6269ZM33.6269 42.007C33.6269 42.5593 34.0746 43.007 34.6269 43.007C35.1792 43.007 35.6269 42.5593 35.6269 42.007H33.6269ZM23.6269 26.007C23.6269 25.4547 23.1792 25.007 22.6269 25.007C22.0746 25.007 21.6269 25.4547 21.6269 26.007H23.6269ZM21.6269 42.007C21.6269 42.5593 22.0746 43.007 22.6269 43.007C23.1792 43.007 23.6269 42.5593 23.6269 42.007H21.6269ZM47.6269 26.007C47.6269 25.4547 47.1792 25.007 46.6269 25.007C46.0746 25.007 45.6269 25.4547 45.6269 26.007H47.6269ZM45.6269 42.007C45.6269 42.5593 46.0746 43.007 46.6269 43.007C47.1792 43.007 47.6269 42.5593 47.6269 42.007H45.6269ZM49.8299 19.007H7.42396V21.007H49.8299V19.007ZM6.31224 14.9086L27.5152 2.49218L26.5046 0.76632L5.30159 13.1827L6.31224 14.9086ZM29.7387 2.49217L50.9416 14.9086L51.9523 13.1827L30.7493 0.76632L29.7387 2.49217ZM27.5152 2.49218C28.163 2.11284 28.2972 2.04807 28.4166 2.02237L27.996 0.0671037C27.4886 0.176247 27.0341 0.456197 26.5046 0.76632L27.5152 2.49218ZM30.7493 0.76632C30.2197 0.456196 29.7652 0.176247 29.2579 0.0671037L28.8373 2.02237C28.9567 2.04807 29.0909 2.11284 29.7387 2.49217L30.7493 0.76632ZM28.4166 2.02237C28.5552 1.99254 28.6986 1.99254 28.8373 2.02237L29.2579 0.0671037C28.842 -0.022368 28.4119 -0.022368 27.996 0.0671037L28.4166 2.02237ZM7.42396 19.007C5.656 19.007 4.39025 19.0063 3.48984 18.9371C3.04159 18.9026 2.73034 18.854 2.51783 18.7961C2.2989 18.7365 2.26742 18.6887 2.29428 18.7154L0.882681 20.1323C1.20221 20.4506 1.60898 20.6215 1.99219 20.7258C2.38181 20.832 2.83659 20.8927 3.33653 20.9312C4.3325 21.0077 5.69183 21.007 7.42396 21.007V19.007ZM5.30159 13.1827C3.80688 14.058 2.63351 14.7443 1.81275 15.3137C1.40076 15.5995 1.03904 15.8817 0.756452 16.1702C0.478514 16.4539 0.213833 16.8069 0.0989755 17.2431L2.03304 17.7524C2.02339 17.789 2.02638 17.7318 2.18516 17.5697C2.3393 17.4124 2.58334 17.2132 2.95273 16.957C3.69474 16.4422 4.78662 15.802 6.31224 14.9086L5.30159 13.1827ZM2.29428 18.7154C2.04181 18.4639 1.94229 18.097 2.03304 17.7524L0.0989755 17.2431C-0.173284 18.277 0.125278 19.3776 0.882681 20.1323L2.29428 18.7154ZM49.8299 21.007C51.562 21.007 52.9214 21.0077 53.9173 20.9312C54.4173 20.8927 54.8721 20.832 55.2617 20.7258C55.6449 20.6215 56.0517 20.4506 56.3712 20.1323L54.9596 18.7154C54.9864 18.6887 54.955 18.7365 54.736 18.7961C54.5235 18.854 54.2123 18.9026 53.764 18.9371C52.8636 19.0063 51.5979 19.007 49.8299 19.007V21.007ZM50.9416 14.9086C52.4673 15.802 53.5591 16.4422 54.3011 16.957C54.6705 17.2132 54.9146 17.4124 55.0687 17.5697C55.2275 17.7318 55.2305 17.789 55.2208 17.7524L57.1549 17.2431C57.04 16.8069 56.7754 16.4539 56.4974 16.1702C56.2148 15.8817 55.8531 15.5995 55.4411 15.3137C54.6204 14.7443 53.447 14.058 51.9523 13.1827L50.9416 14.9086ZM56.3712 20.1323C57.1286 19.3776 57.4272 18.277 57.1549 17.2431L55.2208 17.7524C55.3116 18.097 55.2121 18.4639 54.9596 18.7154L56.3712 20.1323ZM4.82693 49.007H54.4269V47.007H4.82693V49.007ZM56.6269 51.207V51.8209H58.6269V51.207H56.6269ZM54.4269 54.0209H4.82693V56.0209H54.4269V54.0209ZM2.62693 51.8209V51.207H0.626932V51.8209H2.62693ZM4.82693 54.0209C4.25038 54.0209 3.87811 54.0202 3.59477 53.997C3.3231 53.9748 3.22239 53.9371 3.17294 53.9119L2.26496 55.694C2.64334 55.8867 3.03656 55.9581 3.4319 55.9904C3.81558 56.0217 4.28338 56.0209 4.82693 56.0209V54.0209ZM0.626932 51.8209C0.626932 52.3645 0.626154 52.8323 0.657502 53.216C0.689803 53.6113 0.761118 54.0045 0.953913 54.3829L2.73593 53.4749C2.71073 53.4255 2.67306 53.3248 2.65086 53.0531C2.62771 52.7698 2.62693 52.3975 2.62693 51.8209H0.626932ZM3.17294 53.9119C2.98478 53.8161 2.8318 53.6631 2.73593 53.4749L0.953913 54.3829C1.24153 54.9474 1.70048 55.4063 2.26496 55.694L3.17294 53.9119ZM56.6269 51.8209C56.6269 52.3975 56.6262 52.7698 56.603 53.0531C56.5808 53.3248 56.5431 53.4255 56.5179 53.4749L58.3 54.3829C58.4927 54.0045 58.5641 53.6113 58.5964 53.216C58.6277 52.8323 58.6269 52.3645 58.6269 51.8209H56.6269ZM54.4269 56.0209C54.9705 56.0209 55.4383 56.0217 55.822 55.9904C56.2173 55.9581 56.6105 55.8867 56.9889 55.694L56.0809 53.9119C56.0315 53.9371 55.9308 53.9748 55.6591 53.997C55.3758 54.0202 55.0035 54.0209 54.4269 54.0209V56.0209ZM56.5179 53.4749C56.4221 53.6631 56.2691 53.8161 56.0809 53.9119L56.9889 55.694C57.5534 55.4063 58.0123 54.9474 58.3 54.3829L56.5179 53.4749ZM54.4269 49.007C55.0035 49.007 55.3758 49.0078 55.6591 49.0309C55.9308 49.0531 56.0315 49.0908 56.0809 49.116L56.9889 47.334C56.6105 47.1412 56.2173 47.0699 55.822 47.0376C55.4383 47.0062 54.9705 47.007 54.4269 47.007V49.007ZM58.6269 51.207C58.6269 50.6635 58.6277 50.1957 58.5964 49.812C58.5641 49.4166 58.4927 49.0234 58.3 48.645L56.5179 49.553C56.5431 49.6025 56.5808 49.7032 56.603 49.9748C56.6262 50.2582 56.6269 50.6305 56.6269 51.207H58.6269ZM56.0809 49.116C56.2691 49.2119 56.4221 49.3649 56.5179 49.553L58.3 48.645C58.0123 48.0806 57.5534 47.6216 56.9889 47.334L56.0809 49.116ZM4.82693 47.007C4.28338 47.007 3.81558 47.0062 3.4319 47.0376C3.03656 47.0699 2.64334 47.1412 2.26496 47.334L3.17294 49.116C3.22239 49.0908 3.3231 49.0531 3.59477 49.0309C3.87811 49.0078 4.25038 49.007 4.82693 49.007V47.007ZM2.62693 51.207C2.62693 50.6305 2.62771 50.2582 2.65086 49.9748C2.67306 49.7032 2.71073 49.6025 2.73593 49.553L0.953913 48.645C0.761118 49.0234 0.689803 49.4166 0.657502 49.812C0.626154 50.1957 0.626932 50.6635 0.626932 51.207H2.62693ZM2.26496 47.334C1.70048 47.6216 1.24153 48.0806 0.953913 48.645L2.73593 49.553C2.8318 49.3649 2.98478 49.2119 3.17294 49.116L2.26496 47.334ZM9.62693 26.007V42.007H11.6269V26.007H9.62693ZM33.6269 26.007V42.007H35.6269V26.007H33.6269ZM21.6269 26.007V42.007H23.6269V26.007H21.6269ZM45.6269 26.007V42.007H47.6269V26.007H45.6269Z" fill="#AD2D11"/>
</symbol>

<symbol id='habitation' viewBox="0 0 66 56" fill="none" xmlns="http://www.w3.org/2000/svg">
<path d="M64.8621 53.7602H59.1724V21.2831C59.1724 20.392 58.8127 19.5375 58.1725 18.9074C57.5323 18.2774 56.664 17.9234 55.7586 17.9234H36.4138V3.36469C36.4147 2.75606 36.2476 2.15861 35.9304 1.63617C35.6131 1.11373 35.1576 0.685917 34.6125 0.398429C34.0674 0.110941 33.4532 -0.0254234 32.8355 0.00390318C32.2178 0.0332298 31.6198 0.227145 31.1053 0.564936L8.34672 15.496C7.87868 15.8033 7.49508 16.2197 7.23004 16.7082C6.965 17.1967 6.82675 17.742 6.82759 18.2958V53.7602H1.13793C0.836133 53.7602 0.546696 53.8782 0.333292 54.0882C0.119889 54.2982 0 54.5831 0 54.8801C0 55.1771 0.119889 55.462 0.333292 55.672C0.546696 55.882 0.836133 56 1.13793 56H64.8621C65.1639 56 65.4533 55.882 65.6667 55.672C65.8801 55.462 66 55.1771 66 54.8801C66 54.5831 65.8801 54.2982 65.6667 54.0882C65.4533 53.8782 65.1639 53.7602 64.8621 53.7602ZM55.7586 20.1632C56.0604 20.1632 56.3499 20.2812 56.5633 20.4912C56.7767 20.7012 56.8965 20.9861 56.8965 21.2831V53.7602H36.4138V20.1632H55.7586ZM9.10345 18.2986C9.10286 18.1137 9.14879 17.9315 9.23715 17.7683C9.32551 17.6052 9.45354 17.4661 9.60983 17.3634L32.3684 2.43237C32.5399 2.31982 32.7391 2.25518 32.9449 2.24537C33.1508 2.23556 33.3554 2.28093 33.5371 2.37665C33.7188 2.47237 33.8706 2.61483 33.9764 2.78885C34.0822 2.96286 34.1381 3.16189 34.1379 3.36469V53.7602H9.10345V18.2986ZM27.3103 25.7627V30.2423C27.3103 30.5393 27.1905 30.8242 26.9771 31.0342C26.7636 31.2442 26.4742 31.3622 26.1724 31.3622C25.8706 31.3622 25.5812 31.2442 25.3678 31.0342C25.1544 30.8242 25.0345 30.5393 25.0345 30.2423V25.7627C25.0345 25.4657 25.1544 25.1808 25.3678 24.9708C25.5812 24.7608 25.8706 24.6428 26.1724 24.6428C26.4742 24.6428 26.7636 24.7608 26.9771 24.9708C27.1905 25.1808 27.3103 25.4657 27.3103 25.7627ZM18.2069 25.7627V30.2423C18.2069 30.5393 18.087 30.8242 17.8736 31.0342C17.6602 31.2442 17.3708 31.3622 17.069 31.3622C16.7672 31.3622 16.4777 31.2442 16.2643 31.0342C16.0509 30.8242 15.931 30.5393 15.931 30.2423V25.7627C15.931 25.4657 16.0509 25.1808 16.2643 24.9708C16.4777 24.7608 16.7672 24.6428 17.069 24.6428C17.3708 24.6428 17.6602 24.7608 17.8736 24.9708C18.087 25.1808 18.2069 25.4657 18.2069 25.7627ZM18.2069 41.4413V45.9209C18.2069 46.2179 18.087 46.5028 17.8736 46.7128C17.6602 46.9228 17.3708 47.0408 17.069 47.0408C16.7672 47.0408 16.4777 46.9228 16.2643 46.7128C16.0509 46.5028 15.931 46.2179 15.931 45.9209V41.4413C15.931 41.1443 16.0509 40.8594 16.2643 40.6494C16.4777 40.4394 16.7672 40.3214 17.069 40.3214C17.3708 40.3214 17.6602 40.4394 17.8736 40.6494C18.087 40.8594 18.2069 41.1443 18.2069 41.4413ZM27.3103 41.4413V45.9209C27.3103 46.2179 27.1905 46.5028 26.9771 46.7128C26.7636 46.9228 26.4742 47.0408 26.1724 47.0408C25.8706 47.0408 25.5812 46.9228 25.3678 46.7128C25.1544 46.5028 25.0345 46.2179 25.0345 45.9209V41.4413C25.0345 41.1443 25.1544 40.8594 25.3678 40.6494C25.5812 40.4394 25.8706 40.3214 26.1724 40.3214C26.4742 40.3214 26.7636 40.4394 26.9771 40.6494C27.1905 40.8594 27.3103 41.1443 27.3103 41.4413Z" fill="#AD2D11"/>
</symbol>

<symbol id='souvenirs' viewBox="0 0 37 59" fill="none" xmlns="http://www.w3.org/2000/svg">
<path d="M4.96875 56.9072C4.99441 56.91 5.02169 56.9125 5.0498 56.915C5.50066 56.9563 6.10976 56.957 7.01758 56.957H17.2246V57.0303H7.01758C6.10979 57.0303 5.49767 57.0289 5.04297 56.9873C4.62592 56.9491 4.46963 56.8842 4.40625 56.8457L4.96875 56.9072ZM32.0469 56.8457C31.983 56.8842 31.8266 56.9493 31.4111 56.9873C30.9564 57.0289 30.3443 57.0303 29.4365 57.0303H19.2295V56.957H29.4365C30.3443 56.957 30.9534 56.9563 31.4043 56.915C31.4324 56.9125 31.4597 56.91 31.4854 56.9072L32.0469 56.8457ZM17.2246 1.11133C13.8138 1.37189 11.0572 2.94944 9.05273 5.0127C6.85553 7.27452 5.56389 10.1175 5.30566 12.4404C4.95751 15.5738 5.47145 17.6501 6.02344 19.0107C6.46598 20.1014 6.41694 21.3202 5.75586 22.2959C3.89539 25.0419 1.58738 29.2593 1.16016 35.2402C0.920408 38.5967 1.1674 41.3202 1.99023 43.7861C2.80859 46.2385 3.90401 48.0744 5.98633 50.417C5.99636 50.4283 6.0386 50.48 6.08496 50.5664C6.12989 50.6502 6.17214 50.7532 6.19727 50.8691C6.2153 50.9525 6.21405 51.0946 6.16016 51.2998C6.10788 51.4988 6.02039 51.7025 5.92871 51.8789C5.90113 51.932 5.87126 51.9905 5.8418 52.0488L5.83984 52.0518L5.01074 53.71C4.60463 54.5222 4.33271 55.0675 4.16797 55.4893C4.15764 55.5157 4.14854 55.5415 4.13965 55.5654L3.94238 56.0947C3.93652 56.0204 3.94886 55.8513 4.10059 55.4629C4.26671 55.0376 4.53933 54.4897 4.94531 53.6777C5.04795 53.4725 5.14801 53.2808 5.24414 53.0957C5.45274 52.6941 5.67735 52.267 5.80957 51.8857C5.93988 51.51 6.06771 50.9408 5.78223 50.3721L5.72949 50.2666L5.6543 50.1768L5.33008 49.7842C3.74114 47.8273 2.6225 45.912 1.9209 43.8096C1.09412 41.332 0.847709 38.5982 1.08789 35.2354C1.51636 29.2368 3.83161 25.007 5.69629 22.2549C6.34111 21.3032 6.39137 20.111 5.95605 19.0381C5.39968 17.6667 4.88386 15.5784 5.2334 12.4326C5.49352 10.092 6.79259 7.23425 9 4.96191C11.016 2.88661 13.791 1.29888 17.2246 1.03809V1.11133ZM19.2295 1.03809C22.6631 1.29888 25.4381 2.88661 27.4541 4.96191C29.6615 7.23425 30.9606 10.092 31.2207 12.4326C31.5702 15.5784 31.0544 17.6667 30.498 19.0381C30.0627 20.111 30.113 21.3032 30.7578 22.2549C32.6225 25.007 34.9377 29.2368 35.3662 35.2354C35.6064 38.5982 35.36 41.332 34.5332 43.8096C33.7848 46.0523 32.5619 48.0824 30.7998 50.1768L30.7246 50.2666L30.6719 50.3721C30.3864 50.9408 30.5142 51.51 30.6445 51.8857C30.7767 52.267 31.0014 52.6941 31.21 53.0957C31.3061 53.2808 31.4061 53.4725 31.5088 53.6777C31.9148 54.4897 32.1874 55.0376 32.3535 55.4629C32.5053 55.8515 32.5166 56.0204 32.5107 56.0947L32.3145 55.5654C32.3056 55.5415 32.2965 55.5157 32.2861 55.4893C32.1214 55.0675 31.8495 54.5222 31.4434 53.71L30.6143 52.0518L30.6123 52.0488L30.5254 51.8789C30.4481 51.7302 30.3589 51.5059 30.3037 51.2764C30.2441 51.0282 30.2505 50.8815 30.2607 50.8379C30.2817 50.7489 30.3162 50.6602 30.3535 50.5869C30.3717 50.5513 30.3886 50.5245 30.3994 50.5078C30.4129 50.4871 30.4104 50.4941 30.3887 50.5186C32.4679 48.1794 33.6443 46.2422 34.4639 43.7861C35.2867 41.3202 35.5337 38.5967 35.2939 35.2402C34.8667 29.259 32.5578 25.0419 30.6973 22.2959C30.0362 21.3202 29.9881 20.1014 30.4307 19.0107C30.9827 17.6501 31.4966 15.5738 31.1484 12.4404C30.8902 10.1175 29.5986 7.27452 27.4014 5.0127C25.3969 2.94943 22.6403 1.37189 19.2295 1.11133V1.03809ZM18.2295 7.58301C21.764 7.58321 24.6289 10.4489 24.6289 13.9834C24.6287 17.5177 21.7638 20.3826 18.2295 20.3828C14.695 20.3828 11.8293 17.5178 11.8291 13.9834C11.8291 10.4487 14.6948 7.58301 18.2295 7.58301Z" stroke="#AD2D11" stroke-width="2"/>
<path d="M1.64667 33.8945H9.07493C9.53666 33.8945 9.76752 33.8945 9.97948 33.8718C11.2373 33.7374 12.3575 33.0158 13 31.9261C13.1083 31.7425 13.2037 31.5323 13.3946 31.1119L14.0327 29.7069C14.7984 28.0207 16.4793 26.938 18.3312 26.938C20.2251 26.938 21.9356 28.0698 22.6762 29.8129L23.3042 31.2909C23.4946 31.739 23.5898 31.963 23.6998 32.1581C24.3309 33.2768 25.4608 34.0245 26.7373 34.1678C26.9598 34.1928 27.2032 34.1928 27.6901 34.1928H34.8116" stroke="#AD2D11" stroke-width="2"/>
</symbol>

</svg>