<svg width="56" height="56" viewBox="0 0 56 56" fill="none" xmlns="http://www.w3.org/2000/svg">
<path d="M18.4385 31.6846L10.2625 24.0523L2.39963 32.4752M37.5599 24.3138L45.7358 31.9461L53.5987 23.5232M20.584 11.6287C23.683 10.1473 27.109 9.55466 30.4726 9.91824C33.8362 10.2818 37.0025 11.587 39.6117 13.6855C42.2208 15.7839 44.1683 18.5915 45.2327 21.7891C46.2971 24.9868 46.4358 28.4462 45.633 31.7744M35.416 44.3712C32.3168 45.8533 28.8904 46.4463 25.5263 46.0829C22.1623 45.7195 18.9955 44.4142 16.386 42.3155C13.7765 40.2167 11.8289 37.4087 10.7646 34.2106C9.70031 31.0124 9.562 27.5525 10.3654 24.224" stroke="black" stroke-width="2" stroke-linecap="round" stroke-linejoin="round"/>
</svg>
