<svg width="37" height="59" viewBox="0 0 37 59" fill="none" xmlns="http://www.w3.org/2000/svg">
<path d="M4.96875 56.9072C4.99441 56.91 5.02169 56.9125 5.0498 56.915C5.50066 56.9563 6.10976 56.957 7.01758 56.957H17.2246V57.0303H7.01758C6.10979 57.0303 5.49767 57.0289 5.04297 56.9873C4.62592 56.9491 4.46963 56.8842 4.40625 56.8457L4.96875 56.9072ZM32.0469 56.8457C31.983 56.8842 31.8266 56.9493 31.4111 56.9873C30.9564 57.0289 30.3443 57.0303 29.4365 57.0303H19.2295V56.957H29.4365C30.3443 56.957 30.9534 56.9563 31.4043 56.915C31.4324 56.9125 31.4597 56.91 31.4854 56.9072L32.0469 56.8457ZM17.2246 1.11133C13.8138 1.37189 11.0572 2.94944 9.05273 5.0127C6.85553 7.27452 5.56389 10.1175 5.30566 12.4404C4.95751 15.5738 5.47145 17.6501 6.02344 19.0107C6.46598 20.1014 6.41694 21.3202 5.75586 22.2959C3.89539 25.0419 1.58738 29.2593 1.16016 35.2402C0.920408 38.5967 1.1674 41.3202 1.99023 43.7861C2.80859 46.2385 3.90401 48.0744 5.98633 50.417C5.99636 50.4283 6.0386 50.48 6.08496 50.5664C6.12989 50.6502 6.17214 50.7532 6.19727 50.8691C6.2153 50.9525 6.21405 51.0946 6.16016 51.2998C6.10788 51.4988 6.02039 51.7025 5.92871 51.8789C5.90113 51.932 5.87126 51.9905 5.8418 52.0488L5.83984 52.0518L5.01074 53.71C4.60463 54.5222 4.33271 55.0675 4.16797 55.4893C4.15764 55.5157 4.14854 55.5415 4.13965 55.5654L3.94238 56.0947C3.93652 56.0204 3.94886 55.8513 4.10059 55.4629C4.26671 55.0376 4.53933 54.4897 4.94531 53.6777C5.04795 53.4725 5.14801 53.2808 5.24414 53.0957C5.45274 52.6941 5.67735 52.267 5.80957 51.8857C5.93988 51.51 6.06771 50.9408 5.78223 50.3721L5.72949 50.2666L5.6543 50.1768L5.33008 49.7842C3.74114 47.8273 2.6225 45.912 1.9209 43.8096C1.09412 41.332 0.847709 38.5982 1.08789 35.2354C1.51636 29.2368 3.83161 25.007 5.69629 22.2549C6.34111 21.3032 6.39137 20.111 5.95605 19.0381C5.39968 17.6667 4.88386 15.5784 5.2334 12.4326C5.49352 10.092 6.79259 7.23425 9 4.96191C11.016 2.88661 13.791 1.29888 17.2246 1.03809V1.11133ZM19.2295 1.03809C22.6631 1.29888 25.4381 2.88661 27.4541 4.96191C29.6615 7.23425 30.9606 10.092 31.2207 12.4326C31.5702 15.5784 31.0544 17.6667 30.498 19.0381C30.0627 20.111 30.113 21.3032 30.7578 22.2549C32.6225 25.007 34.9377 29.2368 35.3662 35.2354C35.6064 38.5982 35.36 41.332 34.5332 43.8096C33.7848 46.0523 32.5619 48.0824 30.7998 50.1768L30.7246 50.2666L30.6719 50.3721C30.3864 50.9408 30.5142 51.51 30.6445 51.8857C30.7767 52.267 31.0014 52.6941 31.21 53.0957C31.3061 53.2808 31.4061 53.4725 31.5088 53.6777C31.9148 54.4897 32.1874 55.0376 32.3535 55.4629C32.5053 55.8515 32.5166 56.0204 32.5107 56.0947L32.3145 55.5654C32.3056 55.5415 32.2965 55.5157 32.2861 55.4893C32.1214 55.0675 31.8495 54.5222 31.4434 53.71L30.6143 52.0518L30.6123 52.0488L30.5254 51.8789C30.4481 51.7302 30.3589 51.5059 30.3037 51.2764C30.2441 51.0282 30.2505 50.8815 30.2607 50.8379C30.2817 50.7489 30.3162 50.6602 30.3535 50.5869C30.3717 50.5513 30.3886 50.5245 30.3994 50.5078C30.4129 50.4871 30.4104 50.4941 30.3887 50.5186C32.4679 48.1794 33.6443 46.2422 34.4639 43.7861C35.2867 41.3202 35.5337 38.5967 35.2939 35.2402C34.8667 29.259 32.5578 25.0419 30.6973 22.2959C30.0362 21.3202 29.9881 20.1014 30.4307 19.0107C30.9827 17.6501 31.4966 15.5738 31.1484 12.4404C30.8902 10.1175 29.5986 7.27452 27.4014 5.0127C25.3969 2.94943 22.6403 1.37189 19.2295 1.11133V1.03809ZM18.2295 7.58301C21.764 7.58321 24.6289 10.4489 24.6289 13.9834C24.6287 17.5177 21.7638 20.3826 18.2295 20.3828C14.695 20.3828 11.8293 17.5178 11.8291 13.9834C11.8291 10.4487 14.6948 7.58301 18.2295 7.58301Z" stroke="#AD2D11" stroke-width="2"/>
<path d="M1.64667 33.8945H9.07493C9.53666 33.8945 9.76752 33.8945 9.97948 33.8718C11.2373 33.7374 12.3575 33.0158 13 31.9261C13.1083 31.7425 13.2037 31.5323 13.3946 31.1119L14.0327 29.7069C14.7984 28.0207 16.4793 26.938 18.3312 26.938C20.2251 26.938 21.9356 28.0698 22.6762 29.8129L23.3042 31.2909C23.4946 31.739 23.5898 31.963 23.6998 32.1581C24.3309 33.2768 25.4608 34.0245 26.7373 34.1678C26.9598 34.1928 27.2032 34.1928 27.6901 34.1928H34.8116" stroke="#AD2D11" stroke-width="2"/>
</svg>
