<svg width="59" height="57" viewBox="0 0 59 57" fill="none" xmlns="http://www.w3.org/2000/svg">
<path d="M27.0099 1.62925L27.5152 2.49218V2.49218L27.0099 1.62925ZM28.2063 1.04474L27.996 0.0671037L28.2063 1.04474ZM30.244 1.62925L29.7387 2.49217L30.244 1.62925ZM29.0476 1.04474L29.2579 0.0671037L29.0476 1.04474ZM1.58848 19.4238L0.882681 20.1323L1.58848 19.4238ZM5.80691 14.0456L5.30159 13.1827L5.80691 14.0456ZM1.06601 17.4977L0.0989755 17.2431L1.06601 17.4977ZM55.6654 19.4238L56.3712 20.1323L55.6654 19.4238ZM51.447 14.0457L51.9523 13.1827V13.1827L51.447 14.0457ZM56.1879 17.4977L57.1549 17.2431L56.1879 17.4977ZM2.71895 54.8029L3.17294 53.9119L2.71895 54.8029ZM1.84492 53.9289L2.73593 53.4749L1.84492 53.9289ZM57.4089 53.9289L56.5179 53.4749L57.4089 53.9289ZM56.5349 54.8029L56.0809 53.9119L56.5349 54.8029ZM56.5349 48.225L56.0809 49.116L56.5349 48.225ZM57.4089 49.099L56.5179 49.553L57.4089 49.099ZM2.71895 48.225L3.17294 49.116L2.71895 48.225ZM1.84492 49.099L2.73593 49.553L1.84492 49.099ZM11.6269 26.007C11.6269 25.4547 11.1792 25.007 10.6269 25.007C10.0746 25.007 9.62693 25.4547 9.62693 26.007H11.6269ZM9.62693 42.007C9.62693 42.5593 10.0746 43.007 10.6269 43.007C11.1792 43.007 11.6269 42.5593 11.6269 42.007H9.62693ZM35.6269 26.007C35.6269 25.4547 35.1792 25.007 34.6269 25.007C34.0746 25.007 33.6269 25.4547 33.6269 26.007H35.6269ZM33.6269 42.007C33.6269 42.5593 34.0746 43.007 34.6269 43.007C35.1792 43.007 35.6269 42.5593 35.6269 42.007H33.6269ZM23.6269 26.007C23.6269 25.4547 23.1792 25.007 22.6269 25.007C22.0746 25.007 21.6269 25.4547 21.6269 26.007H23.6269ZM21.6269 42.007C21.6269 42.5593 22.0746 43.007 22.6269 43.007C23.1792 43.007 23.6269 42.5593 23.6269 42.007H21.6269ZM47.6269 26.007C47.6269 25.4547 47.1792 25.007 46.6269 25.007C46.0746 25.007 45.6269 25.4547 45.6269 26.007H47.6269ZM45.6269 42.007C45.6269 42.5593 46.0746 43.007 46.6269 43.007C47.1792 43.007 47.6269 42.5593 47.6269 42.007H45.6269ZM49.8299 19.007H7.42396V21.007H49.8299V19.007ZM6.31224 14.9086L27.5152 2.49218L26.5046 0.76632L5.30159 13.1827L6.31224 14.9086ZM29.7387 2.49217L50.9416 14.9086L51.9523 13.1827L30.7493 0.76632L29.7387 2.49217ZM27.5152 2.49218C28.163 2.11284 28.2972 2.04807 28.4166 2.02237L27.996 0.0671037C27.4886 0.176247 27.0341 0.456197 26.5046 0.76632L27.5152 2.49218ZM30.7493 0.76632C30.2197 0.456196 29.7652 0.176247 29.2579 0.0671037L28.8373 2.02237C28.9567 2.04807 29.0909 2.11284 29.7387 2.49217L30.7493 0.76632ZM28.4166 2.02237C28.5552 1.99254 28.6986 1.99254 28.8373 2.02237L29.2579 0.0671037C28.842 -0.022368 28.4119 -0.022368 27.996 0.0671037L28.4166 2.02237ZM7.42396 19.007C5.656 19.007 4.39025 19.0063 3.48984 18.9371C3.04159 18.9026 2.73034 18.854 2.51783 18.7961C2.2989 18.7365 2.26742 18.6887 2.29428 18.7154L0.882681 20.1323C1.20221 20.4506 1.60898 20.6215 1.99219 20.7258C2.38181 20.832 2.83659 20.8927 3.33653 20.9312C4.3325 21.0077 5.69183 21.007 7.42396 21.007V19.007ZM5.30159 13.1827C3.80688 14.058 2.63351 14.7443 1.81275 15.3137C1.40076 15.5995 1.03904 15.8817 0.756452 16.1702C0.478514 16.4539 0.213833 16.8069 0.0989755 17.2431L2.03304 17.7524C2.02339 17.789 2.02638 17.7318 2.18516 17.5697C2.3393 17.4124 2.58334 17.2132 2.95273 16.957C3.69474 16.4422 4.78662 15.802 6.31224 14.9086L5.30159 13.1827ZM2.29428 18.7154C2.04181 18.4639 1.94229 18.097 2.03304 17.7524L0.0989755 17.2431C-0.173284 18.277 0.125278 19.3776 0.882681 20.1323L2.29428 18.7154ZM49.8299 21.007C51.562 21.007 52.9214 21.0077 53.9173 20.9312C54.4173 20.8927 54.8721 20.832 55.2617 20.7258C55.6449 20.6215 56.0517 20.4506 56.3712 20.1323L54.9596 18.7154C54.9864 18.6887 54.955 18.7365 54.736 18.7961C54.5235 18.854 54.2123 18.9026 53.764 18.9371C52.8636 19.0063 51.5979 19.007 49.8299 19.007V21.007ZM50.9416 14.9086C52.4673 15.802 53.5591 16.4422 54.3011 16.957C54.6705 17.2132 54.9146 17.4124 55.0687 17.5697C55.2275 17.7318 55.2305 17.789 55.2208 17.7524L57.1549 17.2431C57.04 16.8069 56.7754 16.4539 56.4974 16.1702C56.2148 15.8817 55.8531 15.5995 55.4411 15.3137C54.6204 14.7443 53.447 14.058 51.9523 13.1827L50.9416 14.9086ZM56.3712 20.1323C57.1286 19.3776 57.4272 18.277 57.1549 17.2431L55.2208 17.7524C55.3116 18.097 55.2121 18.4639 54.9596 18.7154L56.3712 20.1323ZM4.82693 49.007H54.4269V47.007H4.82693V49.007ZM56.6269 51.207V51.8209H58.6269V51.207H56.6269ZM54.4269 54.0209H4.82693V56.0209H54.4269V54.0209ZM2.62693 51.8209V51.207H0.626932V51.8209H2.62693ZM4.82693 54.0209C4.25038 54.0209 3.87811 54.0202 3.59477 53.997C3.3231 53.9748 3.22239 53.9371 3.17294 53.9119L2.26496 55.694C2.64334 55.8867 3.03656 55.9581 3.4319 55.9904C3.81558 56.0217 4.28338 56.0209 4.82693 56.0209V54.0209ZM0.626932 51.8209C0.626932 52.3645 0.626154 52.8323 0.657502 53.216C0.689803 53.6113 0.761118 54.0045 0.953913 54.3829L2.73593 53.4749C2.71073 53.4255 2.67306 53.3248 2.65086 53.0531C2.62771 52.7698 2.62693 52.3975 2.62693 51.8209H0.626932ZM3.17294 53.9119C2.98478 53.8161 2.8318 53.6631 2.73593 53.4749L0.953913 54.3829C1.24153 54.9474 1.70048 55.4063 2.26496 55.694L3.17294 53.9119ZM56.6269 51.8209C56.6269 52.3975 56.6262 52.7698 56.603 53.0531C56.5808 53.3248 56.5431 53.4255 56.5179 53.4749L58.3 54.3829C58.4927 54.0045 58.5641 53.6113 58.5964 53.216C58.6277 52.8323 58.6269 52.3645 58.6269 51.8209H56.6269ZM54.4269 56.0209C54.9705 56.0209 55.4383 56.0217 55.822 55.9904C56.2173 55.9581 56.6105 55.8867 56.9889 55.694L56.0809 53.9119C56.0315 53.9371 55.9308 53.9748 55.6591 53.997C55.3758 54.0202 55.0035 54.0209 54.4269 54.0209V56.0209ZM56.5179 53.4749C56.4221 53.6631 56.2691 53.8161 56.0809 53.9119L56.9889 55.694C57.5534 55.4063 58.0123 54.9474 58.3 54.3829L56.5179 53.4749ZM54.4269 49.007C55.0035 49.007 55.3758 49.0078 55.6591 49.0309C55.9308 49.0531 56.0315 49.0908 56.0809 49.116L56.9889 47.334C56.6105 47.1412 56.2173 47.0699 55.822 47.0376C55.4383 47.0062 54.9705 47.007 54.4269 47.007V49.007ZM58.6269 51.207C58.6269 50.6635 58.6277 50.1957 58.5964 49.812C58.5641 49.4166 58.4927 49.0234 58.3 48.645L56.5179 49.553C56.5431 49.6025 56.5808 49.7032 56.603 49.9748C56.6262 50.2582 56.6269 50.6305 56.6269 51.207H58.6269ZM56.0809 49.116C56.2691 49.2119 56.4221 49.3649 56.5179 49.553L58.3 48.645C58.0123 48.0806 57.5534 47.6216 56.9889 47.334L56.0809 49.116ZM4.82693 47.007C4.28338 47.007 3.81558 47.0062 3.4319 47.0376C3.03656 47.0699 2.64334 47.1412 2.26496 47.334L3.17294 49.116C3.22239 49.0908 3.3231 49.0531 3.59477 49.0309C3.87811 49.0078 4.25038 49.007 4.82693 49.007V47.007ZM2.62693 51.207C2.62693 50.6305 2.62771 50.2582 2.65086 49.9748C2.67306 49.7032 2.71073 49.6025 2.73593 49.553L0.953913 48.645C0.761118 49.0234 0.689803 49.4166 0.657502 49.812C0.626154 50.1957 0.626932 50.6635 0.626932 51.207H2.62693ZM2.26496 47.334C1.70048 47.6216 1.24153 48.0806 0.953913 48.645L2.73593 49.553C2.8318 49.3649 2.98478 49.2119 3.17294 49.116L2.26496 47.334ZM9.62693 26.007V42.007H11.6269V26.007H9.62693ZM33.6269 26.007V42.007H35.6269V26.007H33.6269ZM21.6269 26.007V42.007H23.6269V26.007H21.6269ZM45.6269 26.007V42.007H47.6269V26.007H45.6269Z" fill="#AD2D11"/>
</svg>
